<svg width="86" height="86" viewBox="0 0 86 86" fill="none" xmlns="http://www.w3.org/2000/svg">
<g filter="url(#filter0_d_528_30573)">
<path fill-rule="evenodd" clip-rule="evenodd" d="M43 58C55.7025 58 66 47.7025 66 35C66 22.2975 55.7025 12 43 12C30.2975 12 20 22.2975 20 35C20 47.7025 30.2975 58 43 58Z" fill="#5669FF"/>
</g>
<path d="M47.18 35.82V34.18H43.82V30.82H42.18V34.18H38.82V35.82H42.18V39.18H43.82V35.82H47.18ZM48.82 27.5C49.2733 27.5 49.6667 27.6667 50 28C50.3333 28.3333 50.5 28.7267 50.5 29.18V40.82C50.5 41.2733 50.3333 41.6667 50 42C49.6667 42.3333 49.2733 42.5 48.82 42.5H37.18C36.7133 42.5 36.3133 42.3333 35.98 42C35.66 41.6667 35.5 41.2733 35.5 40.82V29.18C35.5 28.7267 35.66 28.3333 35.98 28C36.3133 27.6667 36.7133 27.5 37.18 27.5H48.82Z" fill="white"/>
<defs>
<filter id="filter0_d_528_30573" x="0" y="0" width="86" height="86" filterUnits="userSpaceOnUse" color-interpolation-filters="sRGB">
<feFlood flood-opacity="0" result="BackgroundImageFix"/>
<feColorMatrix in="SourceAlpha" type="matrix" values="0 0 0 0 0 0 0 0 0 0 0 0 0 0 0 0 0 0 127 0" result="hardAlpha"/>
<feOffset dy="8"/>
<feGaussianBlur stdDeviation="10"/>
<feColorMatrix type="matrix" values="0 0 0 0 0.290196 0 0 0 0 0.262745 0 0 0 0 0.92549 0 0 0 0.25 0"/>
<feBlend mode="normal" in2="BackgroundImageFix" result="effect1_dropShadow_528_30573"/>
<feBlend mode="normal" in="SourceGraphic" in2="effect1_dropShadow_528_30573" result="shape"/>
</filter>
</defs>
</svg>
