<svg width="18" height="19" viewBox="0 0 18 19" fill="none" xmlns="http://www.w3.org/2000/svg">
<g clip-path="url(#clip0_521_13988)">
<path d="M12.2099 11.4333C13.8993 11.4035 14.2711 9.07938 12.6769 8.52588L10.8362 10.5222C11.0659 11.063 11.6074 11.4333 12.2099 11.4333Z" fill="white"/>
<path d="M17.6616 8.41702C17.425 6.99725 16.7598 5.90141 15.727 5.21716C15.2459 5.7393 13.9205 7.17619 13.4203 7.71891C14.2251 8.1551 14.7403 8.99976 14.7403 9.94212C14.7459 12.1262 12.1103 13.2861 10.5042 11.8112C10.351 12.1501 10.1362 12.4619 9.86566 12.7325C8.79321 13.8952 5.47122 14.1762 4.05317 14.1349C4.01174 12.7133 4.29396 9.39295 5.45566 8.32244C6.04841 7.73 6.8217 7.42616 7.60019 7.41126C8.45212 6.62304 9.63353 5.5298 10.482 4.7446C9.30346 5.05516 7.57722 5.87737 7.05071 5.1011C6.80431 4.51957 7.9245 3.16829 7.04066 2.03427C6.31633 1.12479 4.69523 1.29563 3.77913 1.94177C-0.681278 5.02138 -1.2777 11.7875 2.61618 15.5516C7.38299 20.355 15.6983 18.1789 17.5251 11.6695C17.6243 11.2599 17.9082 9.91683 17.6616 8.41702Z" fill="white"/>
<path d="M9.86569 8.32242C10.1553 8.61205 10.3809 8.94846 10.5354 9.31466C11.1254 8.6757 14.2404 5.29606 14.7576 4.73556L17.5234 1.73595C17.8255 1.4082 17.8335 0.923167 17.5418 0.631105C17.2493 0.339043 16.7636 0.347358 16.4359 0.650506L12.391 4.39396C11.5127 5.2065 9.76584 6.82375 8.86963 7.65306C9.23202 7.80481 9.5712 8.02793 9.86569 8.32242Z" fill="white"/>
<path d="M8.57591 8.66029C7.78679 8.27628 6.83051 8.41892 6.19057 9.05664C5.5296 9.64104 5.15432 11.8651 5.11621 13.0714C6.32596 13.032 8.54466 12.6589 9.13059 11.997C9.52347 11.6041 9.73966 11.082 9.73966 10.527C9.73955 9.97121 9.52312 9.44907 9.13059 9.05698V9.05664C8.96429 8.88999 8.77651 8.75799 8.57591 8.66029Z" fill="white"/>
</g>
<defs>
<clipPath id="clip0_521_13988">
<rect width="17.7335" height="17.7335" fill="white" transform="translate(0.0283203 0.41748)"/>
</clipPath>
</defs>
</svg>
