<svg width="18" height="19" viewBox="0 0 18 19" fill="none" xmlns="http://www.w3.org/2000/svg">
<g clip-path="url(#clip0_521_13973)">
<path d="M17.4673 15.8937L10.5351 8.96145L2.43595 0.862305H1.803L1.67375 1.19071C1.33264 2.05753 1.18689 2.9441 1.25233 3.75446C1.32691 4.67818 1.67783 5.47791 2.2672 6.06729L8.58983 12.3899L9.42377 11.556L15.269 18.0921C15.8505 18.6735 16.8513 18.7081 17.4673 18.0921C18.0734 17.486 18.0734 16.4998 17.4673 15.8937Z" fill="white"/>
<path d="M5.65957 10.9268L0.707715 15.8786C0.10166 16.4847 0.10166 17.4708 0.707715 18.0769C1.28345 18.6526 2.27944 18.7035 2.90601 18.0769L7.85789 13.125L5.65957 10.9268Z" fill="white"/>
<path d="M17.1761 3.80562L14.3671 6.61456L13.6343 5.88178L16.4433 3.07281L15.7105 2.34003L12.9016 5.14897L12.1688 4.41619L14.9778 1.60725L14.245 0.874512L10.5812 4.53839C10.1329 4.98661 9.8653 5.58176 9.82746 6.21426C9.81789 6.37451 9.78157 6.53214 9.72131 6.68206L12.1014 9.06212C12.2513 9.00179 12.409 8.9655 12.5692 8.95594C13.2017 8.9182 13.7968 8.6505 14.245 8.20227L17.9089 4.53843L17.1761 3.80562Z" fill="white"/>
</g>
<defs>
<clipPath id="clip0_521_13973">
<rect width="17.6789" height="17.6789" fill="white" transform="translate(0.247803 0.862793)"/>
</clipPath>
</defs>
</svg>
