<svg width="19" height="19" viewBox="0 0 19 19" fill="none" xmlns="http://www.w3.org/2000/svg">
<g clip-path="url(#clip0_521_13951)">
<path d="M6.47517 3.7454V12.5989C5.91153 12.086 5.16294 11.773 4.34277 11.773C2.5938 11.773 1.1709 13.196 1.1709 14.9449C1.1709 16.6939 2.5938 18.1168 4.34277 18.1168C6.08958 18.1168 7.51086 16.6974 7.51451 14.9515H7.51465V8.62512L16.6236 5.88781V10.465C16.0599 9.95223 15.3113 9.63916 14.4912 9.63916C12.7422 9.63916 11.3193 11.0621 11.3193 12.811C11.3193 14.56 12.7422 15.9829 14.4912 15.9829C16.2342 15.9829 17.6532 14.5696 17.6628 12.8288H17.6631V0.383301L6.47517 3.7454Z" fill="white"/>
</g>
<defs>
<clipPath id="clip0_521_13951">
<rect width="17.7335" height="17.7335" fill="white" transform="translate(0.547363 0.41748)"/>
</clipPath>
</defs>
</svg>
