<svg width="23" height="23" viewBox="0 0 23 23" fill="none" xmlns="http://www.w3.org/2000/svg">
<path fill-rule="evenodd" clip-rule="evenodd" d="M16.535 7.092C16.535 9.95026 14.2819 12.2673 11.5025 12.2673C8.72314 12.2673 6.47001 9.95026 6.47001 7.092C6.47001 4.23374 8.72314 1.91666 11.5025 1.91666C14.2819 1.91666 16.535 4.23374 16.535 7.092ZM15.822 15.1833C17.4221 15.5073 18.4668 16.0359 18.9145 16.8885C19.2507 17.5539 19.2507 18.3461 18.9145 19.0115C18.4668 19.8641 17.4636 20.4268 15.8054 20.7167C15.0666 20.8657 14.3186 20.9626 13.5669 21.0066C12.8705 21.0833 12.1741 21.0833 11.4694 21.0833H10.2009C9.93556 21.0492 9.67854 21.0322 9.42982 21.0322C8.67807 20.9935 7.92999 20.8995 7.19131 20.7508C5.59119 20.4439 4.54655 19.8982 4.09885 19.0456C3.92602 18.7153 3.8349 18.3464 3.83354 17.9713C3.82994 17.594 3.9183 17.2217 4.09056 16.8885C4.52997 16.0359 5.57461 15.4817 7.19131 15.1833C7.93324 15.0376 8.68388 14.9436 9.43811 14.9019C10.8178 14.7907 12.2038 14.7907 13.5835 14.9019C14.3348 14.9457 15.0826 15.0397 15.822 15.1833Z" fill="#2C3550"/>
</svg>
