<svg width="19" height="19" viewBox="0 0 19 19" fill="none" xmlns="http://www.w3.org/2000/svg">
<g clip-path="url(#clip0_521_13958)">
<path d="M8.80465 2.79139C8.68893 2.0294 8.45493 1.25807 8.11408 0.504395C6.34406 0.753286 4.74196 1.52459 3.46851 2.65766L7.86793 7.05711C8.72748 5.96398 9.05971 4.4709 8.80465 2.79139Z" fill="white"/>
<path d="M7.87264 8.52979C6.82193 9.39734 5.4701 9.85058 3.95129 9.85062C3.5489 9.85062 3.13493 9.81882 2.71161 9.75457C1.97207 9.64225 1.22661 9.43156 0.495034 9.13096C0.494238 9.18135 0.493164 9.23171 0.493164 9.28231C0.493164 11.5438 1.34032 13.6072 2.73395 15.1735L8.62517 9.28231L7.87264 8.52979Z" fill="white"/>
<path d="M7.13353 7.79005L2.73408 3.39062C1.601 4.66407 0.829702 6.26615 0.580811 8.03617C1.33452 8.37702 2.10589 8.61108 2.86777 8.7268C4.54739 8.98189 6.04043 8.6496 7.13353 7.79005Z" fill="white"/>
<path d="M15.8522 9.83813C14.1726 9.583 12.6795 9.91529 11.5864 10.7748L15.9858 15.1743C17.1189 13.9008 17.8902 12.2987 18.1391 10.5287C17.3855 10.1879 16.6142 9.95388 15.8522 9.83813Z" fill="white"/>
<path d="M10.1121 10.7704L9.35972 10.0181L3.46851 15.9093C5.03483 17.3029 7.09818 18.1501 9.35972 18.1501C9.41032 18.1501 9.46068 18.149 9.51108 18.1482C9.21051 17.4166 8.99979 16.6711 8.88746 15.9316C8.58059 13.9106 9.01468 12.0995 10.1121 10.7704Z" fill="white"/>
<path d="M8.60742 7.79566L9.35978 8.54802L15.251 2.6568C13.6847 1.26313 11.6213 0.416016 9.35978 0.416016C9.30918 0.416016 9.25881 0.417089 9.20842 0.417921C9.50899 1.14946 9.71971 1.89485 9.83204 2.6345C10.1389 4.65552 9.70482 6.46662 8.60742 7.79566Z" fill="white"/>
<path d="M9.91476 15.775C10.0304 16.5369 10.2645 17.3083 10.6054 18.062C12.3754 17.8131 13.9775 17.0418 15.2509 15.9087L10.8514 11.5093C9.99193 12.6024 9.6597 14.0955 9.91476 15.775Z" fill="white"/>
<path d="M10.8471 10.0342C12.1761 8.9368 13.9872 8.50274 16.0082 8.80962C16.7479 8.92194 17.4933 9.1327 18.2248 9.43323C18.2257 9.38284 18.2267 9.33248 18.2267 9.28184C18.2267 7.0203 17.3796 4.95695 15.9859 3.39062L10.0947 9.28187L10.8471 10.0342Z" fill="white"/>
</g>
<defs>
<clipPath id="clip0_521_13958">
<rect width="17.7335" height="17.7335" fill="white" transform="translate(0.493164 0.41748)"/>
</clipPath>
</defs>
</svg>
